<?xml version="1.0" standalone="no"?>
<!DOCTYPE svg PUBLIC "-//W3C//DTD SVG 20010904//EN"
 "http://www.w3.org/TR/2001/REC-SVG-20010904/DTD/svg10.dtd">
<svg version="1.0" xmlns="http://www.w3.org/2000/svg"
 width="16.000000pt" height="16.000000pt" viewBox="0 0 16.000000 16.000000"
 preserveAspectRatio="xMidYMid meet">
<metadata>
Created by potrace 1.11, written by Peter Selinger 2001-2013
</metadata>
<g transform="translate(0.000000,16.000000) scale(0.002286,-0.002286)"
fill="#000000" stroke="none">
<path d="M4118 6614 c-2 -1 -27 -5 -57 -9 -271 -34 -533 -236 -648 -500 -50
-116 -67 -204 -67 -345 1 -134 23 -243 69 -338 l23 -47 -39 -8 c-25 -5 -37
-12 -33 -19 4 -7 2 -8 -4 -4 -11 6 -95 -15 -202 -51 -25 -8 -49 -16 -55 -17
-15 -4 -46 -16 -75 -29 -14 -6 -27 -11 -30 -11 -32 -5 -88 -31 -83 -39 3 -6 1
-7 -5 -3 -6 4 -34 -5 -62 -19 -27 -14 -53 -26 -57 -26 -5 -1 -27 -14 -49 -30
-23 -15 -44 -25 -48 -22 -3 4 -6 -2 -6 -12 0 -10 -3 -15 -6 -12 -10 10 -45
-13 -38 -24 3 -6 0 -9 -8 -7 -17 4 -28 -6 -131 -107 -80 -78 -122 -125 -112
-125 3 0 -5 -12 -18 -26 -12 -14 -21 -28 -19 -30 1 -3 -4 -12 -13 -20 -8 -9
-13 -19 -10 -24 3 -4 -2 -11 -11 -14 -8 -3 -12 -10 -9 -16 3 -5 1 -10 -5 -10
-6 0 -9 -4 -5 -9 3 -5 1 -12 -5 -16 -6 -4 -8 -11 -5 -16 4 -5 1 -9 -5 -9 -6 0
-8 -4 -5 -10 3 -5 1 -10 -5 -10 -6 0 -8 -4 -5 -10 3 -5 1 -10 -5 -10 -8 0 -10
-9 -6 -26 4 -15 3 -23 -2 -20 -6 3 -12 -3 -15 -14 -3 -12 -1 -18 5 -14 6 4 3
-4 -5 -17 -8 -13 -14 -34 -13 -46 2 -13 -2 -19 -7 -16 -6 4 -8 0 -4 -9 3 -9 3
-19 -1 -22 -6 -6 -8 -23 -13 -86 -1 -19 -7 -41 -13 -49 -9 -12 -8 -13 4 -6 13
8 13 7 1 -8 -11 -14 -11 -17 0 -17 9 0 10 -3 4 -8 -12 -8 -13 -27 -3 -37 4 -4
4 -15 -1 -24 -5 -9 -7 -35 -6 -59 2 -23 0 -40 -4 -38 -4 3 -7 -4 -7 -14 0 -10
4 -17 7 -14 4 2 6 -15 5 -38 -1 -24 1 -48 6 -55 5 -7 5 -14 -2 -18 -8 -5 -8
-11 1 -21 6 -7 9 -21 5 -29 -3 -8 0 -15 5 -15 6 0 9 -9 6 -20 -3 -11 -1 -23 4
-26 5 -3 9 -16 9 -28 0 -13 7 -36 14 -52 8 -15 13 -31 10 -36 -3 -4 0 -8 6 -8
6 0 8 -4 5 -10 -3 -5 -1 -10 4 -10 6 0 10 -3 9 -7 -3 -13 13 -53 22 -53 4 0
10 -9 13 -20 8 -31 10 -34 31 -52 12 -10 17 -17 13 -18 -4 0 8 -16 28 -35 19
-20 35 -40 35 -45 0 -6 7 -10 16 -10 8 0 12 -4 9 -10 -3 -5 1 -10 9 -10 8 0
17 -9 21 -20 3 -11 9 -19 13 -18 15 3 42 -15 42 -28 0 -8 6 -14 13 -14 7 0 23
-9 35 -20 12 -11 25 -20 31 -20 5 0 11 -3 13 -7 5 -12 66 -53 78 -53 5 0 10
-3 10 -8 0 -4 25 -22 55 -40 30 -18 55 -38 55 -43 0 -6 4 -8 9 -5 4 3 19 -4
32 -15 13 -12 34 -25 47 -30 12 -5 22 -16 22 -24 0 -9 5 -13 11 -10 13 8 51
-30 41 -41 -4 -4 -2 -4 5 0 14 8 135 -103 126 -117 -3 -6 -2 -7 4 -4 9 6 60
-48 62 -65 1 -5 10 -17 21 -28 12 -12 18 -26 14 -32 -4 -6 -3 -8 3 -5 13 8 26
-20 16 -35 -3 -6 -2 -8 4 -5 5 3 17 -9 26 -28 l16 -33 -147 -2 c-225 -2 -476
-15 -667 -35 -38 -3 -90 -9 -115 -11 -25 -3 -56 -6 -70 -9 -14 -2 -45 -7 -70
-10 -192 -26 -442 -88 -640 -158 -69 -25 -179 -64 -245 -88 -66 -23 -122 -44
-125 -47 -8 -6 -8 -332 0 -337 4 -2 119 -18 256 -35 l249 -31 28 -32 c63 -72
192 -372 252 -582 24 -89 81 -346 90 -408 2 -18 8 -63 14 -102 5 -38 13 -97
16 -130 3 -33 7 -73 10 -90 13 -105 23 -259 24 -372 1 -69 -4 -64 101 -78 55
-8 106 -15 132 -20 11 -3 46 -7 77 -10 60 -6 105 -12 161 -20 36 -5 82 -9 225
-20 44 -4 96 -8 115 -10 252 -26 1121 -26 1305 0 16 2 62 7 100 9 132 10 394
44 542 72 l92 16 -7 62 c-15 135 -7 649 13 766 2 14 9 61 15 105 39 272 136
571 258 787 24 43 44 78 45 78 11 2 92 11 177 19 206 20 235 23 238 26 1 1 19
88 41 193 l38 191 -26 -1 c-15 -1 -99 30 -186 67 -213 90 -305 120 -454 149
-122 24 -158 29 -286 41 -81 7 -151 14 -205 20 -25 3 -101 8 -170 11 -69 3
-152 7 -185 9 -69 4 -430 15 -652 20 -83 2 -157 6 -162 10 -6 3 -11 15 -11 25
0 10 -5 22 -10 25 -6 4 -8 11 -5 16 4 5 1 9 -5 9 -6 0 -9 4 -6 9 3 5 -1 14
-10 21 -8 7 -13 19 -10 27 3 7 1 13 -4 13 -6 0 -18 16 -27 35 -9 19 -21 35
-25 35 -5 0 -6 5 -3 10 3 6 1 10 -4 10 -6 0 -11 6 -11 13 0 7 -9 19 -20 27
-11 8 -20 19 -20 24 0 5 -13 22 -30 38 -16 15 -30 36 -30 46 0 12 -3 14 -8 4
-6 -9 -12 -5 -22 13 -7 14 -16 25 -20 25 -13 0 -55 42 -52 52 1 5 -2 7 -8 3
-5 -3 -10 -1 -10 4 0 6 -6 11 -13 11 -7 0 -19 9 -27 20 -8 11 -19 20 -25 20
-5 0 -26 14 -45 30 -19 16 -40 34 -47 40 -7 5 -17 10 -23 10 -6 0 -8 5 -4 12
4 6 3 8 -4 4 -6 -3 -17 1 -25 9 -9 8 -20 15 -25 15 -5 0 -22 12 -37 28 -16 15
-25 20 -21 12 4 -8 -2 -4 -14 10 -12 14 -25 25 -29 24 -10 -2 -55 29 -69 48
-7 10 -17 16 -22 13 -5 -3 -26 11 -46 32 -20 21 -33 31 -29 23 5 -8 -10 4 -33
27 -23 23 -42 47 -42 53 0 6 -4 8 -10 5 -5 -3 -10 1 -10 9 0 9 -5 16 -11 16
-5 0 -7 5 -4 10 3 6 0 10 -8 10 -8 0 -18 7 -21 16 -4 10 -2 13 7 8 6 -4 2 3
-11 15 -12 12 -20 26 -17 32 4 5 1 9 -5 9 -7 0 -9 7 -6 16 4 10 2 13 -6 8 -8
-5 -9 -2 -5 10 4 10 3 15 -3 11 -9 -6 -13 11 -13 57 0 10 -4 15 -10 11 -6 -4
-8 0 -4 10 3 10 3 17 -2 17 -4 0 -7 10 -6 23 1 12 -3 28 -9 36 -9 12 -8 13 4
6 12 -6 13 -5 3 6 -16 16 -17 33 -1 23 8 -5 8 -3 2 7 -13 21 -13 219 0 212 6
-4 5 0 -2 9 -10 12 -10 18 -1 23 8 6 7 10 -2 16 -8 5 -9 9 -3 9 5 0 11 10 12
23 5 69 9 93 16 105 4 6 5 16 1 21 -3 5 -1 12 5 16 6 4 8 11 5 16 -4 5 -1 9 6
9 7 0 9 3 6 7 -4 3 -1 13 6 21 9 13 9 14 0 8 -7 -4 -13 -2 -13 3 0 6 5 11 10
11 6 0 10 8 10 17 0 9 8 25 18 36 10 13 12 17 3 12 -11 -6 -10 -2 2 16 9 13
17 32 17 42 0 10 4 16 9 12 5 -3 13 5 17 17 4 13 9 25 13 28 3 3 15 16 26 30
l20 25 -20 -14 c-11 -8 0 5 25 27 25 23 42 42 38 42 -4 0 3 10 15 23 12 13 25
22 29 20 3 -2 16 9 28 24 12 16 25 28 28 28 16 0 51 32 44 40 -4 5 -2 5 5 1 7
-4 21 2 33 14 11 11 21 19 23 19 8 -5 47 14 47 23 0 6 2 9 6 6 3 -3 33 8 67
24 34 17 68 31 75 32 8 2 18 9 23 17 6 9 9 10 9 2 0 -10 6 -10 25 -1 14 6 25
14 25 17 0 4 12 8 27 9 15 1 29 5 32 10 3 4 11 7 16 8 37 1 84 18 78 27 -4 6
-1 7 6 3 7 -5 24 -3 39 2 15 6 36 14 47 18 11 4 23 7 27 6 3 -1 30 6 59 14 29
9 60 17 68 20 9 2 25 6 36 9 15 3 37 -11 82 -53 94 -88 224 -157 355 -190 87
-22 123 -26 223 -25 148 2 267 33 410 109 33 17 85 37 115 44 103 24 230 82
279 128 12 12 12 15 0 23 -8 5 -21 7 -29 4 -8 -2 -4 3 10 13 97 67 223 227
261 332 19 52 24 85 24 165 0 120 -25 219 -85 333 -25 48 -36 78 -29 83 6 3
-34 51 -94 110 -120 121 -189 163 -302 184 -53 10 -97 27 -143 54 -82 49 -169
81 -287 108 -22 5 -213 11 -217 7z"/>
</g>
</svg>
