<svg width="512" height="512" viewBox="0 0 512 512" version="1.1" xmlns="http://www.w3.org/2000/svg" xmlns:xlink="http://www.w3.org/1999/xlink" xmlns:figma="http://www.figma.com/figma/ns">
<title>roz</title>
<desc>Created using Figma</desc>
<g id="Canvas" transform="translate(395 323)" figma:type="canvas">
<mask id="mask0_alpha" mask-type="alpha">
<path d="M -395 -323L 117 -323L 117 189L -395 189L -395 -323Z" fill="#FFFFFF"/>
</mask>
<g id="roz" style="mix-blend-mode:normal;" mask="url(#mask0_alpha)" figma:type="frame">
<g id="Vector 5" style="mix-blend-mode:normal;" figma:type="vector">
<use xlink:href="#path0_fill" transform="translate(-307.5 -6.06085)" fill="#804E27" style="mix-blend-mode:normal;"/>
</g>
<g id="Ellipse 2" style="mix-blend-mode:normal;" figma:type="vector">
<use xlink:href="#path1_fill" transform="translate(-297.226 7.63312)" fill="url(#paint1_linear)" style="mix-blend-mode:normal;"/>
</g>
<g id="Vector (Stroke)" style="mix-blend-mode:normal;" figma:type="vector">
<use xlink:href="#path2_fill" transform="translate(-234.217 -208.463)" fill="url(#paint2_linear)" style="mix-blend-mode:normal;"/>
<use xlink:href="#path3_stroke" transform="translate(-234.217 -208.463)" fill="url(#paint3_linear)" style="mix-blend-mode:normal;"/>
</g>
<g id="Ellipse" style="mix-blend-mode:normal;" figma:type="ellipse">
<use xlink:href="#path4_fill" transform="translate(-150.644 -295)" fill="url(#paint4_radial)" style="mix-blend-mode:normal;"/>
</g>
<g id="Rectangle" style="mix-blend-mode:normal;" figma:type="vector">
<use xlink:href="#path5_fill" transform="translate(-297.226 27.4891)" fill="url(#paint5_linear)" style="mix-blend-mode:normal;"/>
</g>
<g id="Ellipse 3" style="mix-blend-mode:normal;" figma:type="ellipse">
<use xlink:href="#path6_fill" transform="translate(-113.656 -285.414)" fill="#219653" style="mix-blend-mode:normal;"/>
</g>
<g id="Ellipse 3" style="mix-blend-mode:normal;" figma:type="ellipse">
<use xlink:href="#path7_fill" transform="translate(-102.697 -279.252)" fill="#FFFFFF" style="mix-blend-mode:normal;"/>
</g>
<g id="Vector 2" style="mix-blend-mode:normal;" figma:type="vector">
<use xlink:href="#path8_fill" transform="translate(-105.934 -282.847)" fill="url(#paint8_radial)" style="mix-blend-mode:normal;"/>
</g>
<g id="Vector 3" style="mix-blend-mode:normal;" figma:type="vector">
<use xlink:href="#path9_fill" transform="translate(-101.327 -217.63)" fill="url(#paint9_radial)" style="mix-blend-mode:normal;"/>
</g>
<g id="Vector 4" style="mix-blend-mode:normal;" figma:type="vector">
<use xlink:href="#path10_fill" transform="matrix(0.973135 0.230233 -0.230405 0.973095 -26.9666 -242.012)" style="mix-blend-mode:normal;"/>
</g>
<g id="Vector 5" style="mix-blend-mode:normal;" figma:type="vector">
<use xlink:href="#path11_fill" transform="translate(-307.5 17.2188)" fill="#B06F3C" style="mix-blend-mode:normal;"/>
<use xlink:href="#path11_fill" transform="translate(-307.5 17.2188)" fill="#B06F3C" style="mix-blend-mode:normal;"/>
</g>
</g>
</g>
<defs>
<linearGradient id="paint1_linear" x1="0" y1="0" x2="1" y2="0" gradientUnits="userSpaceOnUse" gradientTransform="matrix(1.88738e-14 36.9733 -308.232 2.26396e-15 308.232 -2.8734e-14)">
<stop offset="0.188889" stop-color="#997253"/>
<stop offset="0.75" stop-color="#201D1B"/>
</linearGradient>
<linearGradient id="paint2_linear" x1="0" y1="0" x2="1" y2="0" gradientUnits="userSpaceOnUse" gradientTransform="matrix(-74.0619 284.147 -129.237 -33.6588 195.453 -17.6708)">
<stop offset="0" stop-color="#27AE60"/>
<stop offset="1" stop-color="#173B26"/>
</linearGradient>
<linearGradient id="paint3_linear" x1="0" y1="0" x2="1" y2="0" gradientUnits="userSpaceOnUse" gradientTransform="matrix(-89.131 275.246 -125.189 -40.5072 208.498 -5.34562)">
<stop offset="0" stop-color="#247441"/>
<stop offset="1" stop-color="#247441" stop-opacity="0"/>
</linearGradient>
<radialGradient id="paint4_radial" cx="0.5" cy="0.5" r="0.5" gradientUnits="userSpaceOnUse" gradientTransform="matrix(7.63338e-15 124.614 -124.663 7.63039e-15 124.663 -7.63039e-15)">
<stop offset="0.827778" stop-color="#27AE60"/>
<stop offset="0.961111" stop-color="#14552F"/>
</radialGradient>
<linearGradient id="paint5_linear" x1="0" y1="0" x2="1" y2="0" gradientUnits="userSpaceOnUse" gradientTransform="matrix(204.803 12.3244 -23.5203 390.544 129.573 -106.947)">
<stop offset="0" stop-color="#DCA77D"/>
<stop offset="1" stop-color="#A86028"/>
</linearGradient>
<radialGradient id="paint8_radial" cx="0.5" cy="0.5" r="0.5" gradientUnits="userSpaceOnUse" gradientTransform="matrix(-128.275 -139.506 197.769 -181.705 10.024 192.187)">
<stop offset="0" stop-color="#1E7E47"/>
<stop offset="1" stop-color="#000402" stop-opacity="0.96"/>
</radialGradient>
<radialGradient id="paint9_radial" cx="0.5" cy="0.5" r="0.5" gradientUnits="userSpaceOnUse" gradientTransform="matrix(-143.226 151.725 -298.816 -281.857 257.702 83.6903)">
<stop offset="0" stop-color="#1E7E47"/>
<stop offset="0.972222" stop-color="#173323"/>
</radialGradient>
<path id="path0_fill" d="M 6.84959 45.1895L 0 26.7031C 38.3577 13.9541 52.0569 0.000126926 171.24 0C 310.972 2.0542 300.012 11.6399 337 24.649C 300.925 28.3007 209.598 47.5037 171.24 50.2425C 132.882 52.9813 49.3171 51.1234 6.84959 45.1895Z"/>
<path id="path1_fill" d="M 308.232 18.4866C 308.232 28.6965 239.232 36.9733 154.116 36.9733C 69 36.9733 23.2886 30.8111 1.35152e-13 18.4866C 1.35152e-13 8.27675 69 0 154.116 0C 239.232 0 308.232 8.27675 308.232 18.4866Z"/>
<path id="path2_fill" fill-rule="evenodd" d="M 95.1623 4.01156C 100.107 2.68243 105 1.36726 109.766 0L 113.545 13.1625C 108.19 14.6989 102.897 16.1275 97.7053 17.5289C 77.3596 23.0207 58.5582 28.0957 43.5551 37.6107C 25.7788 48.8844 13.3582 66.5533 13.7062 100.999C 13.8751 117.708 18.8591 127.781 25.9085 135.438C 31.8402 141.977 39.5291 146.939 48.0071 152.41C 50.2144 153.834 52.4752 155.293 54.7724 156.823C 65.8711 164.226 77.859 173.55 86.7687 187.792C 95.7463 202.361 101.382 221.825 101.382 249.646L 87.6823 249.646C 87.6823 223.719 82.4507 206.895 75.1049 194.974C 67.6913 182.728 57.8993 175.363 47.1718 168.216C 45.2091 166.907 43.2163 165.613 41.2146 164.314C 32.2974 158.526 23.205 152.624 15.8285 144.711C 6.36949 134.437 0.209071 121.06 0.00775375 101.138C -0.384477 62.3219 14.1366 40.0505 36.2161 26.0477C 53.1625 15.3003 74.6111 9.53534 95.1623 4.01156Z"/>
<path id="path3_stroke" d="M 109.766 0L 110.728 -0.275959L 110.452 -1.23693L 109.491 -0.961227L 109.766 0ZM 95.1623 4.01156L 94.9028 3.04584L 94.9028 3.04584L 95.1623 4.01156ZM 113.545 13.1625L 113.821 14.1237L 114.783 13.8479L 114.507 12.8865L 113.545 13.1625ZM 97.7053 17.5289L 97.4447 16.5635L 97.4447 16.5635L 97.7053 17.5289ZM 43.5551 37.6107L 43.0195 36.7662L 43.0195 36.7662L 43.5551 37.6107ZM 13.7062 100.999L 14.7062 100.989L 13.7062 100.999ZM 25.9085 135.438L 26.6492 134.766L 26.6442 134.76L 25.9085 135.438ZM 48.0071 152.41L 47.4649 153.25L 47.4649 153.25L 48.0071 152.41ZM 54.7724 156.823L 55.3273 155.991L 55.3268 155.991L 54.7724 156.823ZM 86.7687 187.792L 87.6201 187.268L 87.6165 187.262L 86.7687 187.792ZM 101.382 249.646L 101.382 250.646L 102.382 250.646L 102.382 249.646L 101.382 249.646ZM 87.6823 249.646L 86.6823 249.646L 86.6823 250.646L 87.6823 250.646L 87.6823 249.646ZM 75.1049 194.974L 74.2494 195.492L 74.2535 195.499L 75.1049 194.974ZM 47.1718 168.216L 46.6168 169.048L 46.6173 169.048L 47.1718 168.216ZM 41.2146 164.314L 41.759 163.475L 41.759 163.475L 41.2146 164.314ZM 15.8285 144.711L 15.0929 145.388L 15.0971 145.393L 15.8285 144.711ZM 0.00775375 101.138L 1.0077 101.128L 0.00775375 101.138ZM 36.2161 26.0477L 35.6805 25.2032L 35.6805 25.2032L 36.2161 26.0477ZM 109.491 -0.961227C 104.733 0.403746 99.8478 1.7167 94.9028 3.04584L 95.4219 4.97729C 100.367 3.64815 105.268 2.33077 110.042 0.961227L 109.491 -0.961227ZM 114.507 12.8865L 110.728 -0.275959L 108.805 0.275959L 112.584 13.4384L 114.507 12.8865ZM 97.9659 18.4944C 103.158 17.0929 108.458 15.6623 113.821 14.1237L 113.27 12.2012C 107.922 13.7355 102.637 15.162 97.4447 16.5635L 97.9659 18.4944ZM 44.0907 38.4552C 58.9608 29.011 77.6202 23.9862 97.9659 18.4944L 97.4447 16.5635C 77.099 22.0553 58.1555 27.1803 43.0195 36.7662L 44.0907 38.4552ZM 14.7062 100.989C 14.5334 83.8876 17.5307 71.0303 22.7207 61.0778C 27.9177 51.0833 35.2838 44.0346 44.0907 38.4552L 43.0195 36.7662C 34.0502 42.4604 26.3178 49.8831 20.9474 60.153C 15.57 70.4649 12.531 83.665 12.7063 101.009L 14.7062 100.989ZM 26.6442 134.76C 19.7707 127.295 14.8727 117.462 14.7062 100.989L 12.7063 101.009C 12.8775 117.953 17.9475 128.268 25.1728 136.115L 26.6442 134.76ZM 48.5493 151.569C 40.0714 146.098 32.4872 141.214 26.6492 134.766L 25.1678 136.11C 31.1933 142.739 38.9869 147.779 47.4649 153.25L 48.5493 151.569ZM 55.3268 155.991C 53.0235 154.457 50.7566 152.994 48.5493 151.569L 47.4649 153.25C 49.6722 154.674 51.9269 156.129 54.218 157.655L 55.3268 155.991ZM 87.6165 187.262C 78.6012 172.88 66.4559 163.415 55.3273 155.991L 54.2175 157.655C 65.2863 165.037 77.1167 174.221 85.921 188.323L 87.6165 187.262ZM 102.382 249.646C 102.382 221.687 96.7169 202.03 87.6201 187.268L 85.9174 188.317C 94.7758 202.692 100.382 221.964 100.382 249.646L 102.382 249.646ZM 87.6823 250.646L 101.382 250.646L 101.382 248.646L 87.6823 248.646L 87.6823 250.646ZM 74.2535 195.499C 81.4802 207.226 86.6823 223.857 86.6823 249.646L 88.6823 249.646C 88.6823 223.581 83.4211 206.564 75.9562 194.45L 74.2535 195.499ZM 46.6173 169.048C 57.3213 176.179 66.9495 183.398 74.2494 195.492L 75.9604 194.457C 68.433 182.057 58.4773 174.546 47.7262 167.384L 46.6173 169.048ZM 40.6701 165.152C 42.6718 166.452 44.6594 167.742 46.6168 169.048L 47.7267 167.384C 45.7589 166.071 43.7607 164.774 41.759 163.475L 40.6701 165.152ZM 15.0971 145.393C 22.5623 153.39 31.753 159.364 40.6701 165.152L 41.759 163.475C 32.8419 157.687 23.8478 151.858 16.56 144.029L 15.0971 145.393ZM -0.992195 101.148C -0.788505 121.305 5.45781 134.924 15.0929 145.388L 16.5642 144.034C 7.28116 133.951 1.20665 120.816 1.0077 101.128L -0.992195 101.148ZM 35.6805 25.2032C 13.2868 39.4053 -1.38765 62.0129 -0.992195 101.148L 1.0077 101.128C 0.618696 62.6308 14.9865 40.6956 36.7517 26.8922L 35.6805 25.2032ZM 94.9028 3.04584C 74.3515 8.56961 52.7603 14.3848 35.6805 25.2032L 36.7517 26.8922C 53.5646 16.2159 74.8707 10.5011 95.4219 4.97729L 94.9028 3.04584Z"/>
<path id="path4_fill" d="M 124.663 62.3068C 124.663 96.7179 96.7559 124.614 62.3313 124.614C 27.9067 124.614 0 96.7179 0 62.3068C 0 27.8957 27.9067 0 62.3313 0C 96.7559 0 124.663 27.8957 124.663 62.3068Z"/>
<path id="path5_fill" d="M 0 0C 0 0 185.624 30.1264 308.232 0C 253.435 50.6671 267.134 152.686 267.134 152.686C 161.65 172.542 58.9065 152.686 58.9065 152.686C 58.9065 152.686 58.9065 21.9101 0 0Z"/>
<path id="path6_fill" d="M 97.2642 52.0365C 97.2642 80.7754 75.4909 104.073 48.6321 104.073C 21.7733 104.073 0 80.7754 0 52.0365C 0 23.2975 21.7733 0 48.6321 0C 75.4909 0 97.2642 23.2975 97.2642 52.0365Z"/>
<path id="path7_fill" d="M 93.1545 46.5589C 93.1545 72.2727 72.3011 93.1179 46.5772 93.1179C 20.8533 93.1179 0 72.2727 0 46.5589C 0 20.8451 20.8533 0 46.5772 0C 72.3011 0 93.1545 20.8451 93.1545 46.5589Z"/>
<path id="path8_fill" d="M 89.5422 22.0813C 59.4039 25.5048 29.0374 45.589 3.23728 63.1627C -2.01408 51.523 -4.70825 24.2723 26.5259 8.38749C 65.5686 -11.4685 75.843 8.38749 89.5422 22.0813Z"/>
<path id="path9_fill" d="M 68.7131 24.6489C 55.5619 26.8399 14.6125 3.87991 0 0C 1.1416 5.02106 16.1082 31.9066 33.0952 36.2886C 54.329 41.7661 85.1521 21.9101 68.7131 24.6489Z"/>
<path id="path10_fill" d="M 0.05809 15.0635C 0.944658 4.07565 10.3323 0.91294 18.5516 0C 23.4832 14.2419 20.6064 25.5623 18.5516 29.4423C 14.4419 28.7576 -1.06581 28.9928 0.05809 15.0635Z"/>
<path id="path11_fill" d="M 0 28.0723L 0 3.42345C 38.586 7.53159 127.676 16.1587 175.35 17.8019C 223.023 19.4452 302.98 6.61867 337 0L 331.52 28.0723C 295.446 31.724 213.707 39.712 175.35 42.4508C 136.992 45.1896 42.4675 34.0063 0 28.0723Z"/>
</defs>
</svg>
