<svg width="22" height="32" viewBox="0 0 22 32" version="1.1" xmlns="http://www.w3.org/2000/svg" xmlns:xlink="http://www.w3.org/1999/xlink" xmlns:figma="http://www.figma.com/figma/ns">
<title>roz_32</title>
<desc>Created using Figma</desc>
<g id="Canvas" transform="translate(-402 83)" figma:type="canvas">
<g id="roz_32" style="mix-blend-mode:normal;" figma:type="frame">
<g id="Vector 5" style="mix-blend-mode:normal;" figma:type="vector">
<use xlink:href="#path0_fill" transform="translate(402 -63.8966)" fill="#804E27" style="mix-blend-mode:normal;"/>
</g>
<g id="Ellipse 2" style="mix-blend-mode:normal;" figma:type="vector">
<use xlink:href="#path1_fill" transform="translate(402.671 -62.9912)" fill="url(#paint1_linear)" style="mix-blend-mode:normal;"/>
</g>
<g id="Vector (Stroke)" style="mix-blend-mode:normal;" figma:type="vector">
<use xlink:href="#path2_fill" transform="translate(406.784 -77.2786)" fill="url(#paint2_linear)" style="mix-blend-mode:normal;"/>
<use xlink:href="#path3_stroke" transform="translate(406.784 -77.2786)" fill="url(#paint3_linear)" style="mix-blend-mode:normal;"/>
</g>
<g id="Ellipse" style="mix-blend-mode:normal;" figma:type="ellipse">
<use xlink:href="#path4_fill" transform="translate(412.24 -83)" fill="url(#paint4_radial)" style="mix-blend-mode:normal;"/>
</g>
<g id="Rectangle" style="mix-blend-mode:normal;" figma:type="vector">
<use xlink:href="#path5_fill" transform="translate(402.671 -61.6784)" fill="url(#paint5_linear)" style="mix-blend-mode:normal;"/>
</g>
<g id="Ellipse 3" style="mix-blend-mode:normal;" figma:type="ellipse">
<use xlink:href="#path6_fill" transform="translate(414.654 -82.3662)" fill="#219653" style="mix-blend-mode:normal;"/>
</g>
<g id="Ellipse 3" style="mix-blend-mode:normal;" figma:type="ellipse">
<use xlink:href="#path7_fill" transform="translate(415.37 -81.9588)" fill="#FFFFFF" style="mix-blend-mode:normal;"/>
</g>
<g id="Vector 2" style="mix-blend-mode:normal;" figma:type="vector">
<use xlink:href="#path8_fill" transform="translate(415.159 -82.1965)" fill="url(#paint8_radial)" style="mix-blend-mode:normal;"/>
</g>
<g id="Vector 3" style="mix-blend-mode:normal;" figma:type="vector">
<use xlink:href="#path9_fill" transform="translate(415.459 -77.8846)" fill="url(#paint9_radial)" style="mix-blend-mode:normal;"/>
</g>
<g id="Vector 4" style="mix-blend-mode:normal;" figma:type="vector">
<use xlink:href="#path10_fill" transform="matrix(0.972473 0.233015 -0.227651 0.973743 420.314 -79.4966)" style="mix-blend-mode:normal;"/>
</g>
<g id="Vector 5" style="mix-blend-mode:normal;" figma:type="vector">
<use xlink:href="#path11_fill" transform="translate(402 -62.3574)" fill="#B06F3C" style="mix-blend-mode:normal;"/>
<use xlink:href="#path11_fill" transform="translate(402 -62.3574)" fill="#B06F3C" style="mix-blend-mode:normal;"/>
</g>
</g>
</g>
<defs>
<linearGradient id="paint1_linear" x1="0" y1="0" x2="1" y2="0" gradientUnits="userSpaceOnUse" gradientTransform="matrix(1.23211e-15 2.44451 -20.122 1.49683e-16 20.122 -1.89977e-15)">
<stop offset="0.188889" stop-color="#997253"/>
<stop offset="0.75" stop-color="#201D1B"/>
</linearGradient>
<linearGradient id="paint2_linear" x1="0" y1="0" x2="1" y2="0" gradientUnits="userSpaceOnUse" gradientTransform="matrix(-4.8349 18.7865 -8.43684 -2.22537 12.7596 -1.16832)">
<stop offset="0" stop-color="#27AE60"/>
<stop offset="1" stop-color="#173B26"/>
</linearGradient>
<linearGradient id="paint3_linear" x1="0" y1="0" x2="1" y2="0" gradientUnits="userSpaceOnUse" gradientTransform="matrix(-5.81864 18.1981 -8.17255 -2.67816 13.6111 -0.35343)">
<stop offset="0" stop-color="#247441"/>
<stop offset="1" stop-color="#247441" stop-opacity="0"/>
</linearGradient>
<radialGradient id="paint4_radial" cx="0.5" cy="0.5" r="0.5" gradientUnits="userSpaceOnUse" gradientTransform="matrix(4.98322e-16 8.23892 -8.13821 5.04488e-16 8.13821 -5.04488e-16)">
<stop offset="0.827778" stop-color="#27AE60"/>
<stop offset="0.961111" stop-color="#14552F"/>
</radialGradient>
<linearGradient id="paint5_linear" x1="0" y1="0" x2="1" y2="0" gradientUnits="userSpaceOnUse" gradientTransform="matrix(13.3699 0.814838 -1.53545 25.8211 8.45878 -7.07089)">
<stop offset="0" stop-color="#DCA77D"/>
<stop offset="1" stop-color="#A86028"/>
</linearGradient>
<radialGradient id="paint8_radial" cx="0.5" cy="0.5" r="0.5" gradientUnits="userSpaceOnUse" gradientTransform="matrix(-8.37403 -9.22351 12.9107 -12.0136 0.654386 12.7066)">
<stop offset="0" stop-color="#1E7E47"/>
<stop offset="1" stop-color="#000402" stop-opacity="0.96"/>
</radialGradient>
<radialGradient id="paint9_radial" cx="0.5" cy="0.5" r="0.5" gradientUnits="userSpaceOnUse" gradientTransform="matrix(-9.3501 10.0314 -19.5073 -18.6352 16.8233 5.53324)">
<stop offset="0" stop-color="#1E7E47"/>
<stop offset="0.972222" stop-color="#173323"/>
</radialGradient>
<path id="path0_fill" d="M 0.447154 2.98773L 0 1.76549C 2.50407 0.922588 3.39837 8.39183e-06 11.1789 0C 20.3008 0.135815 19.5854 0.769578 22 1.62968C 19.645 1.87112 13.6829 3.14074 11.1789 3.32182C 8.6748 3.50289 3.21951 3.38006 0.447154 2.98773Z"/>
<path id="path1_fill" d="M 20.122 1.22226C 20.122 1.89729 15.6175 2.44451 10.061 2.44451C 4.50445 2.44451 1.52033 2.0371 8.823e-15 1.22226C 8.823e-15 0.547223 4.50445 0 10.061 0C 15.6175 0 20.122 0.547223 20.122 1.22226Z"/>
<path id="path2_fill" fill-rule="evenodd" d="M 6.21238 0.265227C 6.5352 0.17735 6.85463 0.0903971 7.16576 0L 7.41246 0.870245C 7.06283 0.971828 6.71733 1.06628 6.37839 1.15894C 5.05018 1.52203 3.82279 1.85757 2.84336 2.48666C 1.68289 3.23202 0.872047 4.40022 0.89477 6.67764C 0.905791 7.78232 1.23116 8.44835 1.69136 8.95457C 2.07859 9.38691 2.58054 9.71495 3.13399 10.0767C 3.27809 10.1708 3.42568 10.2673 3.57564 10.3685C 4.30019 10.8579 5.08278 11.4744 5.66443 12.416C 6.2505 13.3792 6.61838 14.6662 6.61838 16.5055L 5.72407 16.5055C 5.72407 14.7913 5.38253 13.679 4.90299 12.8909C 4.41902 12.0812 3.77977 11.5942 3.07946 11.1217C 2.95134 11.0351 2.82124 10.9496 2.69057 10.8637C 2.10844 10.481 1.51487 10.0908 1.03332 9.56768C 0.415812 8.88842 0.0136486 8.004 0.00050618 6.68679C -0.0250994 4.12045 0.922867 2.64797 2.36426 1.72216C 3.47055 1.01159 4.87076 0.630436 6.21238 0.265227Z"/>
<path id="path3_stroke" d="M 7.16576 0L 8.12785 -0.272739L 7.85332 -1.24112L 6.88675 -0.960288L 7.16576 0ZM 6.21238 0.265227L 5.94972 -0.699662L 5.94972 -0.699662L 6.21238 0.265227ZM 7.41246 0.870245L 7.69147 1.83053L 8.64551 1.55334L 8.37455 0.597506L 7.41246 0.870245ZM 6.37839 1.15894L 6.11469 0.194331L 6.11469 0.194331L 6.37839 1.15894ZM 2.84336 2.48666L 2.30293 1.64526L 2.30293 1.64526L 2.84336 2.48666ZM 0.89477 6.67764L 1.89472 6.66767L 0.89477 6.67764ZM 1.69136 8.95457L 2.43627 8.28737L 2.4313 8.28189L 1.69136 8.95457ZM 3.13399 10.0767L 2.58692 10.9137L 2.58692 10.9137L 3.13399 10.0767ZM 3.57564 10.3685L 4.13542 9.53982L 4.13491 9.53948L 3.57564 10.3685ZM 5.66443 12.416L 6.51874 11.8962L 6.5152 11.8905L 5.66443 12.416ZM 6.61838 16.5055L 6.61838 17.5055L 7.61838 17.5055L 7.61838 16.5055L 6.61838 16.5055ZM 5.72407 16.5055L 4.72407 16.5055L 4.72407 17.5055L 5.72407 17.5055L 5.72407 16.5055ZM 4.90299 12.8909L 4.0446 13.4039L 4.0487 13.4107L 4.90299 12.8909ZM 3.07946 11.1217L 2.51963 11.9503L 2.52016 11.9507L 3.07946 11.1217ZM 2.69057 10.8637L 3.23989 10.0281L 3.23989 10.0281L 2.69057 10.8637ZM 1.03332 9.56768L 0.293362 10.2404L 0.297571 10.2449L 1.03332 9.56768ZM 0.00050618 6.68679L 1.00046 6.67681L 0.00050618 6.68679ZM 2.36426 1.72216L 1.82383 0.880771L 1.82383 0.880771L 2.36426 1.72216ZM 6.88675 -0.960288C 6.58379 -0.872227 6.27254 -0.787539 5.94972 -0.699662L 6.47503 1.23012C 6.79786 1.14224 7.12547 1.05302 7.44477 0.960288L 6.88675 -0.960288ZM 8.37455 0.597506L 8.12785 -0.272739L 6.20367 0.272739L 6.45037 1.14298L 8.37455 0.597506ZM 6.64208 2.12354C 6.98103 2.03089 7.3342 1.93431 7.69147 1.83053L 7.13345 -0.0900432C 6.79147 0.0093506 6.45363 0.101674 6.11469 0.194331L 6.64208 2.12354ZM 3.38378 3.32805C 4.22954 2.7711 5.31388 2.48664 6.64208 2.12354L 6.11469 0.194331C 4.78649 0.557426 3.41604 0.944029 2.30293 1.64526L 3.38378 3.32805ZM 1.89472 6.66767C 1.87764 5.64617 2.01975 5.02059 2.31443 4.46541C 2.57366 3.93322 2.88469 3.6427 3.38379 3.32805L 2.30293 1.64526C 1.64156 2.07598 0.966937 2.74224 0.536302 3.54985C 0.141127 4.33446 -0.110826 5.43169 -0.105181 6.68762L 1.89472 6.66767ZM 2.4313 8.28189C 2.14529 7.96728 1.90343 7.541 1.89472 6.66767L -0.105181 6.68762C -0.0918507 8.02364 0.31703 8.92941 0.951415 9.62724L 2.4313 8.28189ZM 3.68107 9.23958C 3.12761 8.87787 2.73014 8.6283 2.43625 8.28739L 0.946459 9.62175C 1.42704 10.1455 2.03346 10.552 2.58692 10.9137L 3.68107 9.23958ZM 4.13491 9.53948C 3.97887 9.43424 3.82516 9.33375 3.68107 9.23958L 2.58692 10.9137C 2.73102 11.0079 2.87249 11.1004 3.01637 11.1975L 4.13491 9.53948ZM 6.5152 11.8905C 5.82898 10.8087 4.88988 10.0503 4.13542 9.53982L 3.01587 11.1971C 3.7105 11.6656 4.33658 12.1401 4.81365 12.9416L 6.5152 11.8905ZM 7.61838 16.5055C 7.61838 14.53 7.22196 13.052 6.51872 11.8962L 4.81014 12.9358C 5.27905 13.7065 5.61838 14.8023 5.61838 16.5055L 7.61838 16.5055ZM 5.72407 17.5055L 6.61838 17.5055L 6.61838 15.5055L 5.72407 15.5055L 5.72407 17.5055ZM 4.0487 13.4107C 4.41114 14.0063 4.72407 14.9276 4.72407 16.5055L 6.72407 16.5055C 6.72407 14.655 6.35393 13.3517 5.75728 12.3711L 4.0487 13.4107ZM 2.52016 11.9507C 3.1969 12.4068 3.67336 12.7475 4.04463 13.4039L 5.76135 12.3778C 5.16467 11.4148 4.36265 10.7817 3.63877 10.2928L 2.52016 11.9507ZM 2.14124 11.6993C 2.27191 11.7852 2.39675 11.8673 2.51963 11.9503L 3.63929 10.2931C 3.50593 10.203 3.37057 10.114 3.23989 10.0281L 2.14124 11.6993ZM 0.297571 10.2449C 0.867473 10.853 1.55911 11.3166 2.14124 11.6993L 3.23989 10.0281C 2.65776 9.64542 2.16226 9.32866 1.76906 8.89042L 0.297571 10.2449ZM -0.999444 6.69676C -0.983995 8.24515 -0.498423 9.36937 0.293376 10.2404L 1.77326 8.89501C 1.33005 8.40747 1.01129 7.76284 1.00046 6.67681L -0.999444 6.69676ZM 1.82383 0.880771C 0.0681478 2.00845 -1.02818 3.81717 -0.999444 6.69677L 1.00046 6.67681C 0.977976 4.42374 1.77759 3.28749 2.90468 2.56355L 1.82383 0.880771ZM 5.94972 -0.699662C 4.6081 -0.334454 3.06429 0.0978352 1.82383 0.880771L 2.90468 2.56355C 3.87681 1.92535 5.13341 1.59533 6.47503 1.23012L 5.94972 -0.699662Z"/>
<path id="path4_fill" d="M 8.13821 4.11946C 8.13821 6.39458 6.31641 8.23892 4.06911 8.23892C 1.8218 8.23892 0 6.39458 0 4.11946C 0 1.84435 1.8218 0 4.06911 0C 6.31641 0 8.13821 1.84435 8.13821 4.11946Z"/>
<path id="path5_fill" d="M 0 0C 0 0 12.1179 1.99183 20.122 0C 16.5447 3.34989 17.439 10.0949 17.439 10.0949C 10.5528 11.4077 3.84553 10.0949 3.84553 10.0949C 3.84553 10.0949 3.84553 1.4486 0 0Z"/>
<path id="path6_fill" d="M 6.34959 3.44043C 6.34959 5.34052 4.92819 6.88086 3.1748 6.88086C 1.4214 6.88086 0 5.34052 0 3.44043C 0 1.54033 1.4214 0 3.1748 0C 4.92819 0 6.34959 1.54033 6.34959 3.44043Z"/>
<path id="path7_fill" d="M 6.0813 3.07828C 6.0813 4.77836 4.71996 6.15656 3.04065 6.15656C 1.36135 6.15656 0 4.77836 0 3.07828C 0 1.37819 1.36135 0 3.04065 0C 4.71996 0 6.0813 1.37819 6.0813 3.07828Z"/>
<path id="path8_fill" d="M 5.84548 1.45992C 3.878 1.68627 1.89562 3.01415 0.211336 4.17605C -0.131483 3.40648 -0.307363 1.60478 1.73166 0.554545C 4.28044 -0.75825 4.95117 0.554545 5.84548 1.45992Z"/>
<path id="path9_fill" d="M 4.48572 1.62968C 3.62719 1.77454 0.95393 0.256523 0 0C 0.0745257 0.331971 1.05158 2.10953 2.16052 2.39925C 3.5467 2.7614 5.55889 1.4486 4.48572 1.62968Z"/>
<path id="path10_fill" d="M 0.00379481 0.995271C 0.0617111 0.269285 0.674969 0.0603195 1.21191 0C 1.53407 0.940984 1.34614 1.68895 1.21191 1.9453C 0.943439 1.90006 -0.0696255 1.9156 0.00379481 0.995271Z"/>
<path id="path11_fill" d="M 0 1.85602L 0 0.226344C 2.51897 0.497957 8.33496 1.06834 11.4472 1.17699C 14.5593 1.28563 19.7791 0.437598 22 0L 21.6423 1.85602C 19.2873 2.09745 13.9512 2.62559 11.4472 2.80666C 8.94309 2.98774 2.77236 2.24835 0 1.85602Z"/>
</defs>
</svg>
